<?xml version="1.0" encoding="utf-8"?>
<!-- Generator: Adobe Illustrator 18.1.1, SVG Export Plug-In . SVG Version: 6.00 Build 0)  -->
<svg version="1.1" id="Layer_1" xmlns="http://www.w3.org/2000/svg" xmlns:xlink="http://www.w3.org/1999/xlink" x="0px" y="0px"
	 viewBox="0 0 200 200" enable-background="new 0 0 200 200" xml:space="preserve">
<g>
	<g>
		<rect fill="#4A4A4A" width="199.6" height="200"/>
		<g>
			<polygon fill="#D99A25" points="103.6,179.5 100,183.1 96.4,179.5 100,179.5 			"/>
			<polygon fill="#D99A25" points="103.6,20.5 100,16.9 96.4,20.5 100,20.5 			"/>
		</g>
		<rect x="19.8" y="20.1" fill="#D99A25" width="160" height="160"/>
		<line fill="none" stroke="#4A4A4A" stroke-width="0.5" stroke-miterlimit="10" x1="100" y1="7.8" x2="100" y2="192.6"/>
		<g>
			<polygon fill="#D99A25" points="20.4,103.6 16.8,100 20.4,96.4 20.4,100 			"/>
			<polygon fill="#D99A25" points="179.4,103.6 183,100 179.4,96.4 179.4,100 			"/>
		</g>
		<line fill="none" stroke="#4A4A4A" stroke-width="0.5" stroke-miterlimit="10" x1="7.4" y1="100" x2="192.2" y2="100"/>
	</g>
</g>
<g>
	<path fill="#D93829" d="M81.5,7.8c-0.1,0-0.1,0-0.2,0c-0.1,0-0.2,0-0.2-0.1c0,0-0.1-0.1-0.1-0.1c-0.2-0.5-0.5-0.8-0.7-1
		S79.5,6.4,79,6.4c-0.2,0-0.4,0-0.5,0.1c-0.2,0.1-0.3,0.1-0.4,0.2c-0.1,0.1-0.2,0.2-0.3,0.4c-0.1,0.1-0.1,0.3-0.1,0.5
		c0,0.4,0.2,0.7,0.5,0.9c0.3,0.2,0.8,0.5,1.4,0.7c0.8,0.3,1.3,0.6,1.7,1c0.4,0.4,0.5,0.8,0.5,1.4c0,0.3,0,0.6-0.1,0.9
		c-0.1,0.3-0.3,0.5-0.5,0.7c-0.2,0.2-0.5,0.4-0.8,0.5c-0.3,0.1-0.7,0.2-1.2,0.2c-0.5,0-0.9-0.1-1.4-0.2c-0.4-0.1-0.7-0.2-1-0.4
		c0-0.3-0.1-0.7-0.1-1c0-0.3-0.1-0.6-0.2-0.9c0.1,0,0.1,0,0.2,0c0.1,0,0.2,0,0.2,0.1c0.1,0,0.1,0.1,0.1,0.2c0.2,0.6,0.5,1,0.8,1.3
		c0.3,0.3,0.8,0.4,1.3,0.4c0.3,0,0.5,0,0.7-0.1c0.2-0.1,0.4-0.2,0.5-0.3c0.1-0.1,0.2-0.3,0.3-0.4c0.1-0.2,0.1-0.3,0.1-0.5
		c0-0.4-0.1-0.7-0.4-1c-0.3-0.2-0.7-0.5-1.2-0.6c-0.3-0.1-0.7-0.3-0.9-0.4c-0.3-0.1-0.5-0.3-0.7-0.5c-0.2-0.2-0.4-0.4-0.5-0.6
		c-0.1-0.2-0.2-0.5-0.2-0.9c0-0.3,0.1-0.6,0.2-0.8c0.1-0.3,0.3-0.5,0.5-0.7s0.5-0.3,0.7-0.5c0.3-0.1,0.6-0.2,1-0.2
		c0.4,0,0.7,0,1.1,0.1c0.3,0.1,0.7,0.2,1.2,0.4c0,0.2,0,0.5,0.1,0.8C81.4,7.3,81.4,7.6,81.5,7.8z"/>
	<path fill="#D93829" d="M90.4,6.2C90.4,6.1,90.4,6.1,90.4,6.2C90.4,6.1,90.5,6,90.5,6c0,0,0.1,0,0.2,0c0.1,0,0.2,0,0.3,0
		c0.1,0,0.1,0,0.3,0c0.1,0,0.2,0,0.3,0s0.2,0,0.4,0s0.2,0,0.3,0c0,0.1,0,0.1,0,0.2c0,0.1,0,0.2-0.1,0.2c-0.3,0-0.5,0.1-0.6,0.2
		c-0.1,0.1-0.1,0.2-0.1,0.3c0,0,0,0.1,0,0.3c0,0.2,0,0.5,0.1,1s0.1,1.1,0.1,1.9s0.1,1.8,0.1,3c0,0.2,0.1,0.3,0.2,0.3
		c0.1,0.1,0.3,0.1,0.6,0.2c0,0,0.1,0,0.1,0.1c0,0,0,0.1,0,0.1c0,0,0,0.1,0,0.2c-0.3,0-0.5,0-0.8,0c-0.2,0-0.4,0-0.6,0
		c-0.1,0-0.2,0-0.3,0s-0.2,0-0.4,0c-0.1,0-0.3,0-0.4,0c-0.1,0-0.2,0-0.3,0c0-0.1,0-0.1,0-0.2c0-0.1,0-0.2,0.1-0.2
		c0.3-0.1,0.5-0.1,0.7-0.2c0.1-0.1,0.2-0.2,0.2-0.3c0,0,0-0.2,0-0.4c0-0.3,0-0.6,0-1c0-0.4,0-0.8-0.1-1.3c0-0.5,0-0.9-0.1-1.3
		c0-0.4,0-0.8-0.1-1c0-0.3,0-0.5,0-0.5l-2.6,6.3c0,0.1-0.1,0.1-0.1,0.2c0,0-0.1,0.1-0.1,0.1c-0.1,0-0.1,0-0.1,0l-2.9-6.7
		c0,0.1,0,0.3,0,0.6c0,0.3,0,0.7,0,1.1c0,0.4,0,0.9-0.1,1.3s0,0.9-0.1,1.3c0,0.4,0,0.7,0,1c0,0.3,0,0.4,0,0.4c0,0.2,0.3,0.4,0.8,0.5
		c0.1,0,0.1,0.1,0.1,0.2c0,0,0,0.1,0,0.2c-0.2,0-0.4,0-0.6,0c-0.2,0-0.4,0-0.6,0c-0.1,0-0.3,0-0.5,0c-0.2,0-0.4,0-0.6,0
		c0-0.1,0-0.1,0-0.2c0-0.1,0-0.2,0.1-0.2c0.2,0,0.4-0.1,0.5-0.2c0.1-0.1,0.2-0.2,0.2-0.3c0-0.1,0-0.3,0-0.6c0-0.3,0-0.7,0.1-1.2
		s0-0.9,0.1-1.5c0-0.5,0-1,0.1-1.4c0-0.4,0-0.8,0-1.1c0-0.3,0-0.4,0-0.4c0-0.1-0.1-0.2-0.1-0.3c-0.1-0.1-0.3-0.1-0.6-0.2
		c-0.1,0-0.1-0.1-0.1-0.2c0,0,0-0.1,0-0.2c0.1,0,0.2,0,0.4,0c0.1,0,0.3,0,0.4,0c0.1,0,0.3,0,0.4,0c0.1,0,0.2,0,0.3,0
		c0.1,0,0.3,0,0.3,0c0.1,0,0.1,0,0.2,0c0,0,0.1,0,0.1,0.1c0,0,0,0.1,0.1,0.1l2.6,6L90.4,6.2z"/>
	<path fill="#D93829" d="M93.8,9.9c0-0.6,0.1-1.1,0.3-1.6s0.5-0.9,0.8-1.3c0.3-0.4,0.7-0.7,1.2-0.9c0.5-0.2,0.9-0.3,1.4-0.3
		c0.7,0,1.3,0.1,1.8,0.3c0.5,0.2,0.9,0.5,1.3,0.9s0.6,0.8,0.8,1.3c0.2,0.5,0.3,1,0.3,1.5c0,0.6-0.1,1.2-0.3,1.7
		c-0.2,0.5-0.5,0.9-0.9,1.3c-0.4,0.3-0.8,0.6-1.3,0.8c-0.5,0.2-1,0.3-1.6,0.3c-0.6,0-1.1-0.1-1.6-0.3s-0.9-0.5-1.2-0.8
		c-0.3-0.4-0.6-0.8-0.8-1.3C93.9,11,93.8,10.5,93.8,9.9z M97.9,13.3c0.4,0,0.7-0.1,1-0.2c0.3-0.1,0.6-0.3,0.8-0.6
		c0.2-0.3,0.4-0.6,0.5-0.9c0.1-0.4,0.2-0.7,0.2-1.2c0-0.6-0.1-1.1-0.2-1.6c-0.1-0.5-0.3-0.9-0.5-1.3c-0.2-0.4-0.6-0.6-0.9-0.9
		c-0.4-0.2-0.8-0.3-1.3-0.3c-0.3,0-0.6,0.1-0.9,0.2c-0.3,0.1-0.6,0.3-0.8,0.5c-0.2,0.2-0.4,0.5-0.5,0.9C95.1,8.3,95,8.7,95,9.2
		c0,0.6,0.1,1.1,0.2,1.6c0.1,0.5,0.3,0.9,0.6,1.3c0.2,0.4,0.5,0.7,0.9,0.9C97,13.2,97.4,13.3,97.9,13.3z"/>
	<path fill="#D93829" d="M104.8,9.9v3c0,0.2,0,0.3,0.2,0.3c0.1,0.1,0.3,0.1,0.6,0.2c0,0,0.1,0,0.1,0c0,0,0,0.1,0,0.1
		c0,0.1,0,0.1,0,0.2c-0.3,0-0.5,0-0.7,0c-0.2,0-0.4,0-0.6,0c-0.2,0-0.4,0-0.7,0c-0.3,0-0.5,0-0.8,0c0-0.1,0-0.1,0-0.2
		c0-0.1,0-0.2,0.1-0.2c0.3-0.1,0.5-0.1,0.6-0.2c0.1-0.1,0.2-0.2,0.2-0.3V6.8c0-0.2-0.1-0.3-0.2-0.3s-0.3-0.1-0.6-0.2
		c-0.1,0-0.1-0.1-0.1-0.2c0,0,0-0.1,0-0.2c0.2,0,0.5,0,0.7,0c0.3,0,0.5,0,0.7,0c0.2,0,0.4,0,0.7,0c0.3,0,0.5,0,0.8,0
		c0,0.1,0,0.1,0,0.2c0,0.1,0,0.2-0.1,0.2c-0.3,0-0.5,0.1-0.6,0.2s-0.2,0.2-0.2,0.3v2.9l2.8-2.8c0,0,0.1-0.1,0.1-0.2s0.1-0.1,0.1-0.2
		c0-0.1,0-0.2-0.1-0.2s-0.2-0.1-0.4-0.1c-0.1,0-0.1-0.1-0.1-0.2c0,0,0-0.1,0-0.2c0.2,0,0.5,0,0.7,0c0.2,0,0.4,0,0.6,0
		c0.2,0,0.4,0,0.6,0c0.2,0,0.4,0,0.5,0c0,0.1,0,0.1,0,0.2c0,0.1,0,0.2-0.1,0.2c-0.2,0-0.3,0.1-0.5,0.1c-0.2,0.1-0.3,0.2-0.4,0.3
		l-2.7,2.7l3.3,3.5c0.1,0.1,0.3,0.2,0.4,0.3c0.1,0.1,0.3,0.1,0.5,0.1c0.1,0,0.1,0.1,0.1,0.2c0,0.1,0,0.1,0,0.2c-0.2,0-0.5,0-0.8,0
		c-0.3,0-0.6,0-0.8,0c-0.2,0-0.5,0-0.7,0c-0.2,0-0.5,0-0.8,0c0-0.1,0-0.1,0-0.2c0-0.1,0-0.2,0.1-0.2c0.4,0,0.5-0.1,0.5-0.3
		c0-0.1,0-0.2-0.1-0.2L104.8,9.9z"/>
	<path fill="#D93829" d="M112.8,6.4v3.1h1.9c0.2,0,0.3-0.1,0.3-0.2c0.1-0.2,0.1-0.3,0.2-0.6c0-0.1,0.1-0.2,0.2-0.2c0,0,0.1,0,0.1,0
		c0,0,0.1,0,0.1,0c0,0.2,0,0.4,0,0.6c0,0.2,0,0.4,0,0.6c0,0.1,0,0.3,0,0.5c0,0.2,0,0.4,0,0.7c-0.1,0-0.1,0-0.2,0
		c-0.1,0-0.2-0.1-0.2-0.2c0-0.2-0.1-0.4-0.2-0.6c-0.1-0.2-0.2-0.2-0.3-0.2h-1.9v2.8c0,0.2,0.1,0.3,0.3,0.3c0.2,0.1,0.6,0.1,1.1,0.1
		h0.7c0.2,0,0.4,0,0.6-0.1c0.2-0.1,0.3-0.2,0.5-0.3c0.1-0.1,0.2-0.3,0.4-0.4c0.1-0.2,0.2-0.3,0.3-0.5c0-0.1,0.1-0.1,0.2-0.1
		c0,0,0.1,0,0.1,0s0.1,0,0.1,0.1c-0.1,0.2-0.1,0.3-0.2,0.5c-0.1,0.2-0.1,0.4-0.2,0.6c0,0.2-0.1,0.4-0.1,0.5
		c-0.1,0.1-0.1,0.2-0.2,0.2c-0.1,0-0.2,0-0.3,0c-0.1,0-0.2,0-0.4,0c-0.1,0-0.3,0-0.4,0c-0.1,0-0.3,0-0.4,0h-2.6c-0.2,0-0.5,0-0.7,0
		c-0.3,0-0.5,0-0.8,0c0-0.1,0-0.1,0-0.2c0-0.1,0-0.2,0.1-0.2c0.3-0.1,0.5-0.1,0.7-0.2s0.2-0.2,0.2-0.3V6.8c0-0.2-0.1-0.3-0.2-0.3
		c-0.1-0.1-0.3-0.1-0.7-0.2c-0.1,0-0.1-0.1-0.1-0.2c0,0,0-0.1,0-0.1c0,0,0-0.1,0-0.1c0.3,0,0.6,0,0.9,0c0.2,0,0.4,0,0.6,0h2.4
		c0.4,0,0.7,0,0.9,0c0.3,0,0.4,0,0.5,0c0.1,0,0.2,0.1,0.2,0.2c0,0.1,0.1,0.3,0.1,0.5c0,0.2,0.1,0.4,0.1,0.6c0,0.2,0.1,0.4,0.2,0.5
		c-0.1,0-0.1,0.1-0.2,0.1c-0.1,0-0.2,0-0.2-0.1c-0.1-0.2-0.2-0.4-0.3-0.5s-0.2-0.3-0.3-0.4s-0.3-0.2-0.4-0.2c-0.2,0-0.4-0.1-0.6-0.1
		H112.8z"/>
	<path fill="#D93829" d="M120.4,10.3l-2-3.6c-0.1-0.1-0.2-0.2-0.3-0.3s-0.3-0.1-0.5-0.1c0,0-0.1,0-0.1-0.1c0,0,0-0.1,0-0.1
		c0,0,0,0,0-0.1s0,0,0-0.1c0,0,0,0,0-0.1c0.2,0,0.4,0,0.7,0c0.3,0,0.5,0,0.8,0c0.1,0,0.2,0,0.3,0c0.1,0,0.3,0,0.4,0
		c0.1,0,0.3,0,0.4,0s0.2,0,0.3,0c0,0,0,0.1,0,0.1c0,0,0,0,0,0.1s0,0,0,0c0,0,0,0.1,0,0.1c0,0-0.1,0.1-0.1,0.1
		c-0.2,0-0.4,0.1-0.5,0.1c-0.1,0-0.1,0.1-0.1,0.2c0,0.1,0,0.1,0.1,0.2l1.5,2.7l1.4-2.5c0.1-0.1,0.1-0.3,0.1-0.3
		c0-0.1-0.1-0.2-0.2-0.2c-0.1-0.1-0.3-0.1-0.5-0.1c-0.1,0-0.1-0.1-0.1-0.2c0,0,0-0.1,0-0.1c0,0,0-0.1,0-0.1c0.2,0,0.4,0,0.6,0
		c0.2,0,0.5,0,0.7,0c0.2,0,0.4,0,0.6,0c0.2,0,0.4,0,0.6,0c0,0,0,0.1,0,0.1c0,0,0,0,0,0.1c0,0,0,0,0,0c0,0.1,0,0.2-0.1,0.2
		c-0.3,0-0.5,0.1-0.6,0.1s-0.2,0.2-0.3,0.3l-1.9,3.4v2.7c0,0.2,0.1,0.3,0.2,0.4s0.4,0.1,0.7,0.2c0.1,0,0.1,0.1,0.1,0.2
		c0,0,0,0,0,0.1s0,0,0,0.1c0,0,0,0.1,0,0.1c-0.2,0-0.4,0-0.6,0c-0.2,0-0.3,0-0.5,0s-0.3,0-0.5,0c-0.1,0-0.3,0-0.5,0
		c-0.2,0-0.3,0-0.5,0c-0.2,0-0.4,0-0.6,0c0,0,0,0,0-0.1c0,0,0,0,0-0.1s0,0,0-0.1c0-0.1,0-0.2,0.1-0.2c0.3-0.1,0.5-0.1,0.7-0.2
		c0.1-0.1,0.2-0.2,0.2-0.4V10.3z"/>
</g>
<g>
	<path fill="#D93829" d="M191.2,110.7v0.9h2.6c0.2,0,0.3-0.1,0.4-0.2s0.1-0.4,0.2-0.8c0-0.1,0.1-0.1,0.2-0.1c0.1,0,0.1,0,0.2,0
		c0,0.2,0,0.5,0,0.8c0,0.3,0,0.6,0,0.9c0,0.2,0,0.4,0,0.7c0,0.3,0,0.5,0,0.8c-0.1,0-0.1,0-0.2,0c-0.1,0-0.2,0-0.2-0.1
		c0-0.3-0.1-0.5-0.2-0.6s-0.2-0.2-0.3-0.2h-6.1c-0.2,0-0.3,0.1-0.3,0.2c-0.1,0.1-0.1,0.3-0.2,0.7c0,0.1-0.1,0.1-0.2,0.1
		c0,0-0.1,0-0.2,0c0-0.2,0-0.5,0-0.7c0-0.3,0-0.5,0-0.7v-1.6c0-0.9,0.2-1.5,0.6-2c0.4-0.4,0.9-0.7,1.5-0.7c0.2,0,0.4,0,0.6,0.1
		c0.2,0.1,0.4,0.2,0.6,0.3c0.2,0.1,0.4,0.3,0.5,0.5c0.2,0.2,0.3,0.4,0.4,0.7l2.8-2c0.2-0.2,0.4-0.3,0.4-0.5s0.1-0.4,0.2-0.5
		c0-0.1,0.1-0.1,0.2-0.1c0.1,0,0.1,0,0.2,0c0,0.2,0,0.4,0,0.7c0,0.3,0,0.5,0,0.7c0,0.2-0.1,0.3-0.2,0.5c-0.1,0.2-0.3,0.3-0.6,0.5
		L191.2,110.7z M190.7,110.9c0-0.6-0.1-1-0.4-1.3c-0.2-0.3-0.6-0.5-1.2-0.5c-0.2,0-0.5,0-0.7,0.1c-0.2,0.1-0.4,0.2-0.5,0.3
		c-0.2,0.1-0.3,0.3-0.4,0.6c-0.1,0.2-0.1,0.5-0.1,0.8v0.6h3.3V110.9z"/>
	<path fill="#D93829" d="M193.8,103.8c0.2,0,0.3-0.1,0.3-0.2s0.1-0.3,0.2-0.6c0-0.1,0.1-0.1,0.2-0.1c0,0,0.1,0,0.2,0
		c0,0.2,0,0.5,0,0.7c0,0.2,0,0.5,0,0.7c0,0.2,0,0.5,0,0.7c0,0.3,0,0.5,0,0.7c-0.1,0-0.1,0-0.2,0c-0.1,0-0.2,0-0.2-0.1
		c-0.1-0.3-0.1-0.5-0.2-0.6s-0.2-0.2-0.3-0.2h-6.1c-0.2,0-0.3,0.1-0.3,0.2s-0.1,0.3-0.2,0.6c0,0,0,0.1-0.1,0.1c0,0-0.1,0-0.1,0
		s-0.1,0-0.2,0c0-0.2,0-0.5,0-0.8c0-0.3,0-0.5,0-0.7c0-0.2,0-0.4,0-0.7c0-0.3,0-0.5,0-0.8c0.1,0,0.1,0,0.2,0c0.1,0,0.2,0,0.2,0.1
		c0,0.3,0.1,0.5,0.2,0.6s0.2,0.2,0.3,0.2H193.8z"/>
	<path fill="#D93829" d="M194.8,97.8c0,0.7-0.1,1.3-0.3,1.8s-0.5,0.9-0.9,1.3c-0.4,0.3-0.8,0.6-1.3,0.7c-0.5,0.2-1,0.2-1.6,0.2
		c-0.5,0-0.9-0.1-1.4-0.2c-0.5-0.2-0.9-0.4-1.3-0.7s-0.7-0.8-0.9-1.3c-0.2-0.5-0.4-1.1-0.4-1.8c0-0.3,0-0.5,0-0.7
		c0-0.2,0-0.4,0.1-0.6c0-0.2,0.1-0.4,0.1-0.6c0-0.2,0.1-0.4,0.1-0.6c0.2,0,0.5,0,0.8-0.1c0.3,0,0.6-0.1,0.9-0.2c0,0.1,0,0.1,0,0.2
		c0,0.1,0,0.1,0,0.2c0,0.1-0.1,0.1-0.1,0.1c-0.5,0.1-0.9,0.4-1.1,0.7c-0.2,0.3-0.3,0.8-0.3,1.4c0,0.5,0.1,0.9,0.2,1.3s0.4,0.7,0.7,1
		c0.3,0.3,0.6,0.5,1,0.6c0.4,0.1,0.9,0.2,1.4,0.2c0.6,0,1.1-0.1,1.5-0.3c0.5-0.2,0.9-0.4,1.2-0.7c0.3-0.3,0.6-0.6,0.8-1
		s0.3-0.8,0.3-1.2c0-0.3,0-0.6-0.1-0.9c-0.1-0.2-0.2-0.4-0.3-0.6c-0.1-0.2-0.3-0.3-0.5-0.4c-0.2-0.1-0.4-0.2-0.6-0.3
		c-0.1-0.1-0.2-0.2-0.2-0.3c0,0,0-0.1,0-0.1s0-0.1,0-0.1c0.3,0.1,0.6,0.2,0.9,0.3s0.7,0.2,1,0.2c0.1,0.4,0.1,0.8,0.1,1.2
		C194.8,96.9,194.8,97.3,194.8,97.8z"/>
	<path fill="#D93829" d="M193.8,86.8c0.2,0,0.3-0.1,0.3-0.2c0.1-0.1,0.1-0.3,0.2-0.6c0-0.1,0.1-0.1,0.2-0.1c0.1,0,0.1,0,0.2,0
		c0,0.2,0,0.4,0,0.7c0,0.3,0,0.5,0,0.7c0,0.2,0,0.5,0,0.7c0,0.3,0,0.5,0,0.7c-0.1,0-0.2,0-0.2,0c-0.1,0-0.2,0-0.2-0.1
		c-0.1-0.3-0.1-0.5-0.2-0.6c-0.1-0.1-0.2-0.2-0.3-0.2h-2.9v3.8h2.9c0.2,0,0.3-0.1,0.3-0.2c0.1-0.1,0.1-0.3,0.2-0.6
		c0-0.1,0.1-0.1,0.2-0.1c0.1,0,0.1,0,0.2,0c0,0.2,0,0.4,0,0.7c0,0.3,0,0.5,0,0.7c0,0.2,0,0.5,0,0.7c0,0.2,0,0.5,0,0.7
		c-0.1,0-0.2,0-0.2,0c-0.1,0-0.2,0-0.2-0.1c-0.1-0.3-0.1-0.5-0.2-0.6s-0.2-0.2-0.3-0.2h-6.1c-0.1,0-0.1,0-0.2,0
		c-0.1,0-0.1,0.1-0.1,0.1c0,0.1-0.1,0.1-0.1,0.2c0,0.1-0.1,0.2-0.1,0.4c0,0.1-0.1,0.1-0.2,0.1c-0.1,0-0.1,0-0.2,0c0-0.2,0-0.4,0-0.7
		c0-0.3,0-0.5,0-0.7c0-0.2,0-0.5,0-0.7c0-0.2,0-0.5,0-0.7c0.1,0,0.1,0,0.2,0c0.1,0,0.2,0,0.2,0.1c0,0.3,0.1,0.5,0.2,0.6
		c0.1,0.1,0.2,0.2,0.3,0.2h2.7V88h-2.7c-0.1,0-0.2,0-0.3,0.1s-0.1,0.3-0.2,0.6c0,0.1-0.1,0.1-0.2,0.1c-0.1,0-0.1,0-0.2,0
		c0-0.2,0-0.4,0-0.7c0-0.3,0-0.5,0-0.7c0-0.2,0-0.5,0-0.7c0-0.2,0-0.5,0-0.7c0.1,0,0.1,0,0.2,0c0.1,0,0.2,0,0.2,0.1
		c0,0.3,0.1,0.5,0.2,0.6c0.1,0.1,0.2,0.1,0.3,0.1H193.8z"/>
</g>
<g>
	<path fill="#D99A25" d="M80.1,190.8c0,0.5-0.1,0.9-0.2,1.4c-0.2,0.5-0.4,0.9-0.7,1.3c-0.3,0.4-0.8,0.7-1.3,0.9
		c-0.5,0.2-1.1,0.3-1.8,0.3h-2.5c-0.2,0-0.4,0-0.7,0c-0.3,0-0.5,0-0.8,0c0-0.1,0-0.1,0-0.2c0-0.1,0-0.2,0.1-0.2
		c0.3-0.1,0.5-0.1,0.6-0.2c0.1-0.1,0.2-0.2,0.2-0.3v-6.1c0-0.2-0.1-0.3-0.2-0.3c-0.1-0.1-0.3-0.1-0.6-0.2c0,0-0.1,0-0.1-0.1
		s0-0.1,0-0.1s0-0.1,0-0.2c0.2,0,0.3,0,0.4,0c0.1,0,0.2,0,0.4,0c0.1,0,0.2,0,0.3,0c0.1,0,0.2,0,0.3,0h2.5c0.7,0,1.3,0.1,1.8,0.3
		c0.5,0.2,0.9,0.5,1.3,0.8c0.3,0.4,0.6,0.8,0.8,1.2C80,189.8,80.1,190.3,80.1,190.8z M78.8,191.1c0-1.2-0.3-2.1-0.9-2.7
		c-0.6-0.6-1.5-0.9-2.7-0.9h-1v6.4c0,0.1,0,0.1,0.1,0.2c0,0.1,0.1,0.1,0.2,0.1c0.1,0,0.2,0.1,0.4,0.1s0.4,0,0.6,0
		c0.6,0,1.1-0.1,1.6-0.2c0.4-0.1,0.8-0.4,1-0.6c0.3-0.3,0.5-0.6,0.6-1C78.8,192,78.8,191.6,78.8,191.1z"/>
	<path fill="#D99A25" d="M83.3,187.4v3.1h1.9c0.2,0,0.3-0.1,0.3-0.2c0.1-0.2,0.1-0.3,0.2-0.6c0-0.1,0.1-0.2,0.2-0.2c0,0,0.1,0,0.1,0
		s0.1,0,0.1,0c0,0.2,0,0.4,0,0.6c0,0.2,0,0.4,0,0.6c0,0.1,0,0.3,0,0.5c0,0.2,0,0.4,0,0.7c-0.1,0-0.1,0-0.2,0c-0.1,0-0.2-0.1-0.2-0.2
		c0-0.2-0.1-0.4-0.2-0.6c-0.1-0.2-0.2-0.2-0.3-0.2h-1.9v2.8c0,0.2,0.1,0.3,0.3,0.3c0.2,0.1,0.6,0.1,1.1,0.1h0.7c0.2,0,0.4,0,0.6-0.1
		c0.2-0.1,0.3-0.2,0.5-0.3c0.1-0.1,0.2-0.3,0.4-0.4c0.1-0.2,0.2-0.3,0.3-0.5c0-0.1,0.1-0.1,0.2-0.1c0,0,0.1,0,0.1,0
		c0,0,0.1,0,0.1,0.1c-0.1,0.2-0.1,0.3-0.2,0.5c-0.1,0.2-0.1,0.4-0.2,0.6c0,0.2-0.1,0.4-0.1,0.5c-0.1,0.1-0.1,0.2-0.2,0.2
		c-0.1,0-0.2,0-0.3,0c-0.1,0-0.2,0-0.4,0c-0.1,0-0.3,0-0.4,0c-0.1,0-0.3,0-0.4,0h-2.6c-0.2,0-0.5,0-0.7,0s-0.5,0-0.8,0
		c0-0.1,0-0.1,0-0.2c0-0.1,0-0.2,0.1-0.2c0.3-0.1,0.5-0.1,0.7-0.2c0.1-0.1,0.2-0.2,0.2-0.3v-6.1c0-0.2-0.1-0.3-0.2-0.3
		c-0.1-0.1-0.3-0.1-0.7-0.2c-0.1,0-0.1-0.1-0.1-0.2c0,0,0-0.1,0-0.1c0,0,0-0.1,0-0.1c0.3,0,0.6,0,0.9,0c0.2,0,0.4,0,0.6,0h2.4
		c0.4,0,0.7,0,0.9,0c0.3,0,0.4,0,0.5,0c0.1,0,0.2,0.1,0.2,0.2c0,0.1,0.1,0.3,0.1,0.5c0,0.2,0.1,0.4,0.1,0.6c0,0.2,0.1,0.4,0.2,0.5
		c-0.1,0-0.1,0.1-0.2,0.1c-0.1,0-0.2,0-0.2-0.1c-0.1-0.2-0.2-0.4-0.3-0.5c-0.1-0.1-0.2-0.3-0.3-0.4c-0.1-0.1-0.3-0.2-0.4-0.2
		c-0.2,0-0.4-0.1-0.6-0.1H83.3z"/>
	<path fill="#D99A25" d="M90.5,193.9c0,0.1,0.1,0.2,0.2,0.3c0.1,0.1,0.3,0.1,0.5,0.1h1.3c0.2,0,0.4,0,0.6-0.1s0.3-0.1,0.4-0.3
		c0.1-0.1,0.2-0.2,0.3-0.4c0.1-0.2,0.2-0.3,0.2-0.6c0-0.1,0.1-0.1,0.1-0.1c0,0,0.1,0,0.1,0s0.1,0,0.1,0.1c-0.1,0.2-0.1,0.5-0.2,0.8
		c-0.1,0.3-0.1,0.6-0.1,0.9c0,0.1,0,0.1-0.1,0.2c0,0-0.1,0-0.1,0c-0.1,0-0.3,0-0.5,0c-0.2,0-0.4,0-0.5,0h-3c-0.2,0-0.4,0-0.7,0
		s-0.5,0-0.8,0c0-0.1,0-0.1,0-0.2c0-0.1,0-0.2,0.1-0.2c0.3-0.1,0.6-0.1,0.7-0.2s0.2-0.2,0.2-0.3v-6.1c0-0.2-0.1-0.3-0.2-0.3
		c-0.1-0.1-0.3-0.1-0.6-0.2c0,0-0.1,0-0.1-0.1c0,0,0-0.1,0-0.1c0-0.1,0-0.1,0-0.2c0.3,0,0.5,0,0.8,0s0.5,0,0.7,0c0.3,0,0.6,0,0.9,0
		c0.3,0,0.6,0,0.8,0c0,0.1,0,0.1,0,0.2c0,0.1,0,0.2-0.1,0.2c-0.3,0-0.6,0.1-0.8,0.2c-0.2,0.1-0.2,0.2-0.2,0.4V193.9z"/>
	<path fill="#D99A25" d="M97.2,193.9c0,0.2,0.1,0.3,0.2,0.3c0.1,0.1,0.3,0.1,0.6,0.2c0.1,0,0.1,0.1,0.1,0.2c0,0,0,0.1,0,0.2
		c-0.2,0-0.5,0-0.7,0c-0.2,0-0.5,0-0.7,0c-0.2,0-0.5,0-0.7,0c-0.3,0-0.5,0-0.7,0c0-0.1,0-0.1,0-0.2c0-0.1,0-0.2,0.1-0.2
		c0.3-0.1,0.5-0.1,0.6-0.2s0.2-0.2,0.2-0.3v-6.1c0-0.2-0.1-0.3-0.2-0.3s-0.3-0.1-0.6-0.2c0,0-0.1,0-0.1-0.1c0,0,0-0.1,0-0.1
		s0-0.1,0-0.2c0.2,0,0.5,0,0.8,0s0.5,0,0.7,0c0.2,0,0.4,0,0.7,0s0.5,0,0.8,0c0,0.1,0,0.1,0,0.2c0,0.1,0,0.2-0.1,0.2
		c-0.3,0-0.5,0.1-0.6,0.2s-0.2,0.2-0.2,0.3V193.9z"/>
	<path fill="#D99A25" d="M103.2,194.9c-0.7,0-1.3-0.1-1.8-0.3s-0.9-0.5-1.3-0.9c-0.3-0.4-0.6-0.8-0.7-1.3c-0.2-0.5-0.2-1-0.2-1.6
		c0-0.5,0.1-0.9,0.2-1.4s0.4-0.9,0.7-1.3c0.3-0.4,0.8-0.7,1.3-0.9s1.1-0.4,1.8-0.4c0.3,0,0.5,0,0.7,0c0.2,0,0.4,0,0.6,0.1
		c0.2,0,0.4,0.1,0.6,0.1c0.2,0,0.4,0.1,0.6,0.2c0,0.2,0,0.5,0.1,0.8c0,0.3,0.1,0.6,0.2,0.9c-0.1,0-0.1,0-0.2,0c-0.1,0-0.1,0-0.2,0
		s-0.1-0.1-0.1-0.1c-0.1-0.5-0.4-0.9-0.7-1.1c-0.3-0.2-0.8-0.3-1.4-0.3c-0.5,0-0.9,0.1-1.3,0.2c-0.4,0.2-0.7,0.4-1,0.7
		c-0.3,0.3-0.5,0.6-0.6,1s-0.2,0.9-0.2,1.3c0,0.6,0.1,1.1,0.3,1.5s0.4,0.9,0.7,1.2c0.3,0.3,0.6,0.6,1,0.8c0.4,0.2,0.8,0.3,1.2,0.3
		c0.3,0,0.6,0,0.9-0.1c0.2-0.1,0.4-0.2,0.6-0.3c0.2-0.1,0.3-0.3,0.4-0.5c0.1-0.2,0.2-0.4,0.3-0.6c0.1-0.1,0.2-0.2,0.3-0.2
		c0,0,0.1,0,0.1,0c0,0,0.1,0,0.1,0c-0.1,0.3-0.2,0.6-0.3,0.9s-0.2,0.7-0.2,1c-0.4,0.1-0.8,0.1-1.2,0.2
		C104.1,194.9,103.7,194.9,103.2,194.9z"/>
	<path fill="#D99A25" d="M111.8,191.9h-2.7l-0.8,1.9c0,0.1-0.1,0.2-0.1,0.2c0,0.2,0.2,0.3,0.7,0.4c0.1,0,0.1,0,0.1,0.1
		c0,0,0,0.1,0,0.1s0,0.1,0,0.2c-0.2,0-0.4,0-0.7,0c-0.2,0-0.5,0-0.7,0c-0.2,0-0.3,0-0.5,0s-0.3,0-0.5,0c0-0.1,0-0.1,0-0.2
		c0-0.1,0-0.1,0-0.1c0,0,0.1-0.1,0.1-0.1c0.2,0,0.4-0.1,0.6-0.2c0.1-0.1,0.2-0.2,0.3-0.3l2.9-7c0.1-0.1,0.1-0.2,0.2-0.2
		c0,0,0.1,0,0.1,0l2.9,7.2c0,0.1,0.2,0.2,0.3,0.3c0.2,0.1,0.3,0.1,0.5,0.1c0,0,0.1,0,0.1,0.1c0,0,0,0.1,0,0.2c0,0,0,0.1,0,0.2
		c-0.3,0-0.5,0-0.8,0s-0.5,0-0.7,0c-0.2,0-0.5,0-0.8,0c-0.3,0-0.5,0-0.8,0c0-0.1,0-0.1,0-0.2c0-0.1,0-0.1,0-0.2s0.1,0,0.1,0
		c0.2,0,0.4-0.1,0.5-0.1s0.2-0.1,0.2-0.2c0,0,0-0.1,0-0.2L111.8,191.9z M111.6,191.4l-1.1-2.9l-1.2,2.9H111.6z"/>
	<path fill="#D99A25" d="M118.5,187.4v6.4c0,0.2,0.1,0.3,0.2,0.4c0.2,0.1,0.4,0.1,0.8,0.2c0.1,0,0.1,0.1,0.1,0.2c0,0.1,0,0.1,0,0.2
		c-0.3,0-0.5,0-0.8,0s-0.6,0-0.9,0c-0.3,0-0.6,0-0.9,0s-0.6,0-0.8,0c0-0.1,0-0.1,0-0.2c0-0.1,0-0.2,0.1-0.2c0.4,0,0.6-0.1,0.8-0.2
		s0.2-0.2,0.2-0.4v-6.4h-1.2c-0.2,0-0.4,0-0.6,0.1c-0.2,0-0.3,0.1-0.4,0.2c-0.1,0.1-0.2,0.2-0.3,0.4c-0.1,0.2-0.2,0.3-0.3,0.5
		c0,0,0,0.1-0.1,0.1c0,0-0.1,0-0.1,0c-0.1,0-0.2,0-0.2-0.1c0.1-0.3,0.1-0.5,0.2-0.8c0-0.2,0.1-0.4,0.1-0.6c0-0.1,0.1-0.3,0.1-0.3
		s0.1-0.1,0.2-0.1c0.1,0,0.1,0,0.2,0c0.1,0,0.2,0,0.3,0c0.1,0,0.2,0,0.4,0c0.1,0,0.2,0,0.3,0h4c0.1,0,0.2,0,0.3,0c0.1,0,0.2,0,0.4,0
		s0.2,0,0.3,0c0.1,0,0.2,0,0.2,0c0.1,0,0.1,0,0.2,0.1s0.1,0.2,0.1,0.4c0,0.2,0.1,0.3,0.1,0.6c0,0.2,0.1,0.5,0.2,0.7c0,0-0.1,0-0.1,0
		c0,0-0.1,0-0.1,0c0,0-0.1,0-0.1,0c0,0-0.1,0-0.1-0.1c-0.1-0.2-0.2-0.4-0.3-0.5c-0.1-0.2-0.2-0.3-0.3-0.4c-0.1-0.1-0.3-0.2-0.4-0.2
		c-0.2,0-0.4-0.1-0.6-0.1H118.5z"/>
	<path fill="#D99A25" d="M124.4,187.4v3.1h1.9c0.2,0,0.3-0.1,0.3-0.2c0.1-0.2,0.1-0.3,0.2-0.6c0-0.1,0.1-0.2,0.2-0.2
		c0,0,0.1,0,0.1,0s0.1,0,0.1,0c0,0.2,0,0.4,0,0.6c0,0.2,0,0.4,0,0.6c0,0.1,0,0.3,0,0.5c0,0.2,0,0.4,0,0.7c-0.1,0-0.1,0-0.2,0
		c-0.1,0-0.2-0.1-0.2-0.2c0-0.2-0.1-0.4-0.2-0.6c-0.1-0.2-0.2-0.2-0.3-0.2h-1.9v2.8c0,0.2,0.1,0.3,0.3,0.3c0.2,0.1,0.6,0.1,1.1,0.1
		h0.7c0.2,0,0.4,0,0.6-0.1c0.2-0.1,0.3-0.2,0.5-0.3c0.1-0.1,0.2-0.3,0.4-0.4c0.1-0.2,0.2-0.3,0.3-0.5c0-0.1,0.1-0.1,0.2-0.1
		c0,0,0.1,0,0.1,0c0,0,0.1,0,0.1,0.1c-0.1,0.2-0.1,0.3-0.2,0.5c-0.1,0.2-0.1,0.4-0.2,0.6c0,0.2-0.1,0.4-0.1,0.5
		c-0.1,0.1-0.1,0.2-0.2,0.2c-0.1,0-0.2,0-0.3,0c-0.1,0-0.2,0-0.4,0c-0.1,0-0.3,0-0.4,0c-0.1,0-0.3,0-0.4,0h-2.6c-0.2,0-0.5,0-0.7,0
		s-0.5,0-0.8,0c0-0.1,0-0.1,0-0.2c0-0.1,0-0.2,0.1-0.2c0.3-0.1,0.5-0.1,0.7-0.2s0.2-0.2,0.2-0.3v-6.1c0-0.2-0.1-0.3-0.2-0.3
		c-0.1-0.1-0.3-0.1-0.7-0.2c-0.1,0-0.1-0.1-0.1-0.2c0,0,0-0.1,0-0.1c0,0,0-0.1,0-0.1c0.3,0,0.6,0,0.9,0c0.2,0,0.4,0,0.6,0h2.4
		c0.4,0,0.7,0,0.9,0c0.3,0,0.4,0,0.5,0c0.1,0,0.2,0.1,0.2,0.2c0,0.1,0.1,0.3,0.1,0.5c0,0.2,0.1,0.4,0.1,0.6c0,0.2,0.1,0.4,0.2,0.5
		c-0.1,0-0.1,0.1-0.2,0.1c-0.1,0-0.2,0-0.2-0.1c-0.1-0.2-0.2-0.4-0.3-0.5c-0.1-0.1-0.2-0.3-0.3-0.4c-0.1-0.1-0.3-0.2-0.4-0.2
		c-0.2,0-0.4-0.1-0.6-0.1H124.4z"/>
</g>
<g>
	<path fill="#D99A25" d="M12.2,115.6c0.1,0,0.2-0.1,0.3-0.2c0.1-0.1,0.1-0.3,0.1-0.5v-1.3c0-0.2,0-0.4-0.1-0.6s-0.1-0.3-0.3-0.4
		c-0.1-0.1-0.2-0.2-0.4-0.3s-0.4-0.2-0.6-0.2c-0.1,0-0.1-0.1-0.1-0.1c0,0,0-0.1,0-0.1s0-0.1,0.1-0.1c0.2,0.1,0.5,0.1,0.8,0.2
		c0.3,0.1,0.6,0.1,0.9,0.1c0.1,0,0.1,0,0.2,0.1s0,0.1,0,0.1c0,0.1,0,0.3,0,0.5c0,0.2,0,0.4,0,0.5v3c0,0.2,0,0.4,0,0.7
		c0,0.3,0,0.5,0,0.8c-0.1,0-0.1,0-0.2,0c-0.1,0-0.2,0-0.2-0.1c-0.1-0.3-0.1-0.6-0.2-0.7c-0.1-0.1-0.2-0.2-0.3-0.2H6.1
		c-0.2,0-0.3,0.1-0.3,0.2c-0.1,0.1-0.1,0.3-0.2,0.6c0,0,0,0.1-0.1,0.1c0,0-0.1,0-0.1,0c-0.1,0-0.1,0-0.2,0c0-0.3,0-0.5,0-0.8
		c0-0.3,0-0.5,0-0.7c0-0.3,0-0.6,0-0.9c0-0.3,0-0.6,0-0.8c0.1,0,0.1,0,0.2,0c0.1,0,0.2,0,0.2,0.1c0,0.3,0.1,0.6,0.2,0.8
		s0.2,0.2,0.4,0.2H12.2z"/>
	<path fill="#D99A25" d="M12.2,109c0.2,0,0.3-0.1,0.3-0.2c0.1-0.1,0.1-0.3,0.2-0.6c0-0.1,0.1-0.1,0.2-0.1c0,0,0.1,0,0.2,0
		c0,0.2,0,0.5,0,0.7c0,0.2,0,0.5,0,0.7c0,0.2,0,0.5,0,0.7c0,0.3,0,0.5,0,0.7c-0.1,0-0.1,0-0.2,0c-0.1,0-0.2,0-0.2-0.1
		c-0.1-0.3-0.1-0.5-0.2-0.6c-0.1-0.1-0.2-0.2-0.3-0.2H6.1c-0.2,0-0.3,0.1-0.3,0.2c-0.1,0.1-0.1,0.3-0.2,0.6c0,0,0,0.1-0.1,0.1
		s-0.1,0-0.1,0s-0.1,0-0.2,0c0-0.2,0-0.5,0-0.8c0-0.3,0-0.5,0-0.7c0-0.2,0-0.4,0-0.7c0-0.3,0-0.5,0-0.8c0.1,0,0.1,0,0.2,0
		c0.1,0,0.2,0,0.2,0.1c0,0.3,0.1,0.5,0.2,0.6c0.1,0.1,0.2,0.2,0.3,0.2H12.2z"/>
	<path fill="#D99A25" d="M13,100.5c0.1,0.4,0.1,0.7,0.1,1.1c0,0.4,0.1,0.8,0.1,1.3c0,0.7-0.1,1.3-0.3,1.8s-0.5,0.9-0.9,1.3
		s-0.8,0.6-1.3,0.8c-0.5,0.2-1,0.2-1.6,0.2c-0.5,0-1-0.1-1.4-0.2c-0.5-0.2-0.9-0.4-1.3-0.7c-0.4-0.3-0.7-0.8-0.9-1.3
		c-0.2-0.5-0.4-1.1-0.4-1.8c0-0.2,0-0.5,0-0.7c0-0.2,0-0.4,0.1-0.7c0-0.2,0.1-0.4,0.1-0.7s0.1-0.5,0.2-0.7c0.3,0,0.6,0,0.9-0.1
		c0.3,0,0.6-0.1,0.9-0.2c0,0,0,0,0,0.1s0,0.1,0,0.1c0,0.1-0.1,0.2-0.2,0.2c-0.5,0.1-0.9,0.4-1.2,0.7s-0.3,0.8-0.3,1.5
		c0,0.5,0.1,1,0.3,1.3c0.2,0.4,0.4,0.7,0.7,1c0.3,0.3,0.6,0.4,1,0.6c0.4,0.1,0.8,0.2,1.3,0.2c0.6,0,1.1-0.1,1.5-0.2
		c0.5-0.2,0.9-0.4,1.2-0.7s0.6-0.6,0.8-1c0.2-0.4,0.3-0.8,0.3-1.3c0-0.2,0-0.5,0-0.7c0-0.2-0.1-0.4-0.1-0.6h-1.8
		c-0.2,0-0.4,0.1-0.5,0.2s-0.1,0.3-0.2,0.6c0,0.1,0,0.1-0.1,0.1c0,0-0.1,0-0.1,0c-0.1,0-0.1,0-0.2,0c0-0.2,0-0.5,0-0.8
		c0-0.3,0-0.5,0-0.7s0-0.4,0-0.7c0-0.3,0-0.5,0-0.7c0.1,0,0.1,0,0.2,0c0.1,0,0.1,0,0.2,0c0,0,0,0.1,0.1,0.1c0,0.3,0.1,0.4,0.2,0.5
		c0.1,0.1,0.2,0.2,0.4,0.2h2.1c0.1,0,0.1,0,0.2,0.1C12.9,100.2,13,100.3,13,100.5z"/>
	<path fill="#D99A25" d="M12.2,91.5c0.2,0,0.3-0.1,0.3-0.2c0.1-0.1,0.1-0.3,0.2-0.6c0-0.1,0.1-0.1,0.2-0.1c0.1,0,0.1,0,0.2,0
		c0,0.2,0,0.4,0,0.7c0,0.3,0,0.5,0,0.7c0,0.2,0,0.5,0,0.7c0,0.3,0,0.5,0,0.7c-0.1,0-0.2,0-0.2,0c-0.1,0-0.2,0-0.2-0.1
		c-0.1-0.3-0.1-0.5-0.2-0.6c-0.1-0.1-0.2-0.2-0.3-0.2H9.3v3.8h2.9c0.2,0,0.3-0.1,0.3-0.2c0.1-0.1,0.1-0.3,0.2-0.6
		c0-0.1,0.1-0.1,0.2-0.1c0.1,0,0.1,0,0.2,0c0,0.2,0,0.4,0,0.7c0,0.3,0,0.5,0,0.7c0,0.2,0,0.5,0,0.7c0,0.2,0,0.5,0,0.7
		c-0.1,0-0.2,0-0.2,0c-0.1,0-0.2,0-0.2-0.1c-0.1-0.3-0.1-0.5-0.2-0.6s-0.2-0.2-0.3-0.2H6.1c-0.1,0-0.1,0-0.2,0
		c-0.1,0-0.1,0.1-0.1,0.1c0,0.1-0.1,0.1-0.1,0.2c0,0.1-0.1,0.2-0.1,0.4c0,0.1-0.1,0.1-0.2,0.1c-0.1,0-0.1,0-0.2,0c0-0.2,0-0.4,0-0.7
		c0-0.3,0-0.5,0-0.7c0-0.2,0-0.5,0-0.7c0-0.2,0-0.5,0-0.7c0.1,0,0.1,0,0.2,0c0.1,0,0.2,0,0.2,0.1c0,0.3,0.1,0.5,0.2,0.6
		c0.1,0.1,0.2,0.2,0.3,0.2h2.7v-3.8H6.1c-0.1,0-0.2,0-0.3,0.1s-0.1,0.3-0.2,0.6c0,0.1-0.1,0.1-0.2,0.1c-0.1,0-0.1,0-0.2,0
		c0-0.2,0-0.4,0-0.7c0-0.3,0-0.5,0-0.7c0-0.2,0-0.5,0-0.7c0-0.2,0-0.5,0-0.7c0.1,0,0.1,0,0.2,0c0.1,0,0.2,0,0.2,0.1
		c0,0.3,0.1,0.5,0.2,0.6c0.1,0.1,0.2,0.1,0.3,0.1H12.2z"/>
	<path fill="#D99A25" d="M5.7,85.6h6.4c0.2,0,0.3-0.1,0.4-0.2c0.1-0.2,0.1-0.4,0.2-0.8c0-0.1,0.1-0.1,0.2-0.1c0.1,0,0.1,0,0.2,0
		c0,0.3,0,0.5,0,0.8c0,0.3,0,0.6,0,0.9c0,0.3,0,0.6,0,0.9c0,0.3,0,0.6,0,0.8c-0.1,0-0.1,0-0.2,0c-0.1,0-0.2,0-0.2-0.1
		c0-0.4-0.1-0.6-0.2-0.8c-0.1-0.2-0.2-0.2-0.4-0.2H5.7v1.2c0,0.2,0,0.4,0.1,0.6c0,0.2,0.1,0.3,0.2,0.4s0.2,0.2,0.4,0.3
		s0.3,0.2,0.5,0.3c0,0,0.1,0,0.1,0.1c0,0,0,0.1,0,0.1C7,89.8,7,89.9,7,90c-0.3-0.1-0.5-0.1-0.8-0.2c-0.2,0-0.4-0.1-0.6-0.1
		c-0.1,0-0.3-0.1-0.3-0.1s-0.1-0.1-0.1-0.2c0-0.1,0-0.1,0-0.2c0-0.1,0-0.2,0-0.3c0-0.1,0-0.2,0-0.4c0-0.1,0-0.2,0-0.3v-4
		c0-0.1,0-0.2,0-0.3c0-0.1,0-0.2,0-0.4s0-0.2,0-0.3c0-0.1,0-0.2,0-0.2c0-0.1,0-0.1,0.1-0.2s0.2-0.1,0.4-0.1c0.2,0,0.3-0.1,0.6-0.1
		c0.2,0,0.5-0.1,0.7-0.2c0,0,0,0.1,0,0.1c0,0,0,0.1,0,0.1c0,0,0,0.1,0,0.1c0,0,0,0.1-0.1,0.1c-0.2,0.1-0.4,0.2-0.5,0.3
		c-0.2,0.1-0.3,0.2-0.4,0.3s-0.2,0.3-0.2,0.4c0,0.2-0.1,0.4-0.1,0.6V85.6z"/>
</g>
</svg>
