<?xml version="1.0" encoding="utf-8"?>
<!-- Generator: Adobe Illustrator 18.1.1, SVG Export Plug-In . SVG Version: 6.00 Build 0)  -->
<svg version="1.1" id="Layer_1" xmlns="http://www.w3.org/2000/svg" xmlns:xlink="http://www.w3.org/1999/xlink" x="0px" y="0px"
	 viewBox="0 0 500 500" enable-background="new 0 0 500 500" xml:space="preserve">
<rect x="8.5" y="239.3" transform="matrix(-0.7071 -0.7071 0.7071 -0.7071 -143.7712 440.8089)" fill="#4A4A4A" width="21.8" height="21.8"/>
<rect x="468.7" y="239.1" transform="matrix(-0.7071 -0.7071 0.7071 -0.7071 641.9277 765.9204)" fill="#4A4A4A" width="21.8" height="21.8"/>
<rect x="239.1" y="469.7" transform="matrix(-0.7071 -0.7071 0.7071 -0.7071 86.9724 997.2299)" fill="#4A4A4A" width="21.8" height="21.8"/>
<rect x="239.1" y="9.5" transform="matrix(-0.7071 -0.7071 0.7071 -0.7071 412.3755 211.6224)" fill="#4A4A4A" width="21.8" height="21.8"/>
<g>
	<g>
		<rect x="18.7" y="19.4" fill="#4A4A4A" width="461.7" height="461.7"/>
		<rect x="49.6" y="50.2" fill="#D99A25" width="400" height="400"/>
		<line fill="none" stroke="#4A4A4A" stroke-width="1.8811" stroke-miterlimit="10" x1="250" y1="19.6" x2="250" y2="481.4"/>
		<line fill="none" stroke="#4A4A4A" stroke-width="1.8811" stroke-miterlimit="10" x1="18.6" y1="250" x2="480.4" y2="250"/>
	</g>
	<g>
		<path fill="#D93829" d="M224.9,34.7c0.4,0.4,0.6,0.7,0.7,1.2c0.1,0.5,0.2,1,0.2,1.4c0,1.3-0.5,2.4-1.4,3.4c-1,0.8-2.2,1.3-3.7,1.3
			c-0.7,0-1.3-0.1-2-0.4c-0.7-0.2-1.2-0.5-1.8-0.7l-0.5,0.7h-0.8l-0.1-5.2h0.8c0.1,0.6,0.4,1.2,0.6,1.7c0.2,0.5,0.6,1,1,1.4
			s0.8,0.7,1.3,1c0.5,0.2,1.1,0.4,1.7,0.4c0.5,0,1-0.1,1.3-0.2c0.4-0.1,0.7-0.4,0.8-0.6c0.2-0.2,0.4-0.5,0.5-0.8
			c0.1-0.4,0.1-0.7,0.1-1.1c0-0.6-0.1-1.2-0.5-1.7s-0.8-1-1.6-1.2c-0.5-0.2-1-0.4-1.6-0.6c-0.6-0.2-1.1-0.5-1.6-0.6
			c-0.8-0.4-1.6-0.8-2-1.6s-0.7-1.4-0.7-2.4c0-0.6,0.1-1.1,0.4-1.6c0.2-0.5,0.6-1,1-1.3c0.4-0.4,0.8-0.6,1.4-0.8
			c0.6-0.2,1.2-0.4,1.8-0.4c0.7,0,1.3,0.1,1.9,0.4c0.6,0.2,1.1,0.5,1.6,0.7l0.5-0.7h0.8l0.1,5h-0.8c-0.1-0.6-0.4-1.1-0.5-1.7
			c-0.2-0.5-0.5-1-0.7-1.4c-0.4-0.4-0.7-0.7-1.1-1c-0.5-0.2-1-0.4-1.7-0.4s-1.2,0.2-1.7,0.6c-0.5,0.5-0.7,1-0.7,1.6s0.1,1.2,0.5,1.7
			s0.7,0.8,1.3,1.1c0.5,0.2,1.1,0.5,1.6,0.6c0.5,0.2,1,0.4,1.4,0.6c0.5,0.2,0.8,0.4,1.2,0.6C224.3,34,224.6,34.5,224.9,34.7z"/>
		<path fill="#D93829" d="M240.2,41.7h-4.7v-0.5c0.1,0,0.4,0,0.6,0c0.2,0,0.5-0.1,0.6-0.1c0.1-0.1,0.2-0.2,0.4-0.4
			c0.1-0.1,0.1-0.2,0.1-0.5v-7.7H237l-3.6,9H233l-3.5-9.2h-0.1v6.4c0,0.6,0,1.1,0.1,1.4c0.1,0.4,0.2,0.6,0.4,0.7s0.4,0.2,0.7,0.2
			c0.4,0,0.6,0.1,0.7,0.1v0.5H227v-0.5c0.2,0,0.5,0,0.7-0.1c0.2,0,0.5-0.1,0.6-0.2c0.1-0.1,0.2-0.4,0.4-0.6c0.1-0.2,0.1-0.7,0.1-1.4
			v-5.4c0-0.4,0-0.6-0.1-0.7c-0.1-0.2-0.2-0.4-0.4-0.5c-0.1-0.1-0.4-0.2-0.6-0.2c-0.2-0.1-0.5-0.1-0.7-0.1v-0.5h3.6l3,7.9l2.6-6.6
			c0.1-0.2,0.1-0.5,0.2-0.7c0.1-0.2,0.1-0.5,0.1-0.5h3.5v0.1c-0.1,0-0.4,0-0.5,0.1c-0.2,0-0.4,0.1-0.5,0.1s-0.2,0.1-0.4,0.2
			c-0.1,0.1-0.1,0.2-0.1,0.5v7.7c0,0.1,0,0.4,0.1,0.5s0.1,0.2,0.4,0.4c0.1,0,0.2,0.1,0.5,0.1c0.2,0,0.4,0.1,0.6,0.1L240.2,41.7
			L240.2,41.7z"/>
		<path fill="#D93829" d="M250.2,32.3c0.5,0.5,0.8,1.1,1.1,1.8c0.2,0.7,0.4,1.4,0.4,2.3c0,0.8-0.1,1.6-0.4,2.3
			c-0.2,0.7-0.6,1.3-1.1,1.8s-1,0.8-1.6,1.1c-0.6,0.2-1.3,0.4-1.9,0.4c-0.7,0-1.4-0.1-2-0.4c-0.6-0.2-1.2-0.7-1.6-1.2
			c-0.5-0.5-0.8-1.1-1.1-1.8c-0.2-0.7-0.4-1.4-0.4-2.2s0.1-1.7,0.4-2.3c0.2-0.7,0.6-1.2,1.1-1.8c0.5-0.5,1-0.8,1.7-1.1
			c0.6-0.2,1.3-0.4,1.9-0.4c0.7,0,1.3,0.1,2,0.4C249.1,31.5,249.7,31.8,250.2,32.3z M249,39.9c0.2-0.5,0.5-1,0.6-1.6
			s0.2-1.2,0.2-1.9s-0.1-1.4-0.2-2c-0.1-0.6-0.4-1.1-0.6-1.6c-0.2-0.5-0.6-0.7-1.1-1c-0.5-0.2-0.8-0.4-1.4-0.4
			c-0.6,0-1.1,0.1-1.6,0.4c-0.5,0.2-0.7,0.6-1.1,1.1c-0.2,0.5-0.5,1-0.6,1.6s-0.2,1.2-0.2,1.8c0,0.7,0.1,1.3,0.2,1.9
			c0.1,0.6,0.4,1.1,0.6,1.6c0.2,0.5,0.6,0.7,1,1.1c0.4,0.4,0.8,0.4,1.4,0.4c0.5,0,1-0.1,1.4-0.4C248.4,40.7,248.7,40.3,249,39.9z"/>
		<path fill="#D93829" d="M263.3,41.7h-3c-0.6-0.8-1.2-1.8-1.9-2.6s-1.4-1.7-2.2-2.5H256v3.7c0,0.1,0,0.4,0.1,0.5s0.1,0.2,0.4,0.4
			c0.1,0,0.2,0.1,0.5,0.1s0.4,0.1,0.6,0.1v0.5h-4.4v-0.6c0.1,0,0.2,0,0.5,0c0.2,0,0.4,0,0.5-0.1s0.2-0.1,0.4-0.2
			c0.1-0.1,0.1-0.2,0.1-0.5v-7.7c0-0.1,0-0.4-0.1-0.5s-0.1-0.2-0.4-0.4c-0.1-0.1-0.2-0.1-0.5-0.1c-0.2,0-0.4-0.1-0.5-0.1v-0.5h4.4
			v0.5c-0.1,0-0.4,0-0.5,0.1c-0.2,0-0.4,0.1-0.5,0.1s-0.2,0.1-0.4,0.2c-0.1,0.1-0.1,0.2-0.1,0.5v3.6h0.1c0.5-0.4,0.8-0.7,1.3-1.2
			c0.5-0.4,0.8-0.8,1.2-1.2c0.4-0.5,0.7-0.8,0.8-1.1c0.1-0.2,0.2-0.5,0.2-0.7c0-0.1,0-0.1-0.1-0.2c-0.1,0-0.2-0.1-0.4-0.1
			c-0.1,0-0.2,0-0.4,0c-0.1,0-0.2,0-0.2,0v-0.5h4v0.5c0,0,0,0-0.1,0h-0.1c-0.1,0-0.1,0-0.2,0s-0.1,0-0.2,0s-0.4,0.1-0.6,0.2
			s-0.4,0.2-0.5,0.4c-0.5,0.6-1.1,1.2-1.6,1.8c-0.6,0.6-1.1,1.2-1.7,1.7c0.7,0.8,1.4,1.6,1.9,2.2c0.5,0.6,1.1,1.3,1.6,1.9
			c0.2,0.2,0.5,0.5,0.6,0.6c0.2,0.1,0.4,0.2,0.6,0.4c0.1,0.1,0.2,0.1,0.5,0.1c0.2,0,0.4,0,0.5,0L263.3,41.7L263.3,41.7z"/>
		<path fill="#D93829" d="M272.5,38.5l-0.2,3.1h-8.8v-0.5c0.1,0,0.4,0,0.6-0.1c0.2,0,0.4-0.1,0.5-0.1c0.1-0.1,0.2-0.1,0.4-0.2
			c0.1-0.1,0.1-0.2,0.1-0.5v-7.6c0-0.1,0-0.4-0.1-0.5c0-0.1-0.1-0.2-0.4-0.4c-0.1-0.1-0.4-0.1-0.6-0.1s-0.4-0.1-0.6-0.1V31h8.2v2.5
			H271c-0.1-0.4-0.4-0.7-0.6-1.2c-0.4-0.5-0.6-0.6-1-0.7c-0.1,0-0.4,0-0.6,0s-0.5,0-0.7,0h-1.7v4.2h1.2c0.4,0,0.7,0,0.8-0.1
			c0.1-0.1,0.4-0.2,0.5-0.4c0.1-0.1,0.2-0.4,0.2-0.6c0-0.2,0.1-0.5,0.1-0.7h0.6v4.2h-0.6c0-0.2-0.1-0.5-0.1-0.7
			c-0.1-0.2-0.1-0.5-0.2-0.6c-0.1-0.2-0.4-0.4-0.5-0.4c-0.2,0-0.5-0.1-0.8-0.1h-1.2v3.1c0,0.4,0,0.6,0.1,0.7
			c0.1,0.1,0.1,0.4,0.2,0.4c0.1,0.1,0.4,0.1,0.5,0.2c0.2,0,0.6,0,1,0c0.1,0,0.4,0,0.6,0s0.5,0,0.7,0s0.4,0,0.6-0.1
			c0.2,0,0.4-0.1,0.5-0.2c0.2-0.2,0.5-0.6,0.7-1.1s0.4-0.8,0.5-1.1h0.7L272.5,38.5L272.5,38.5z"/>
		<path fill="#D93829" d="M282.7,31.6c-0.1,0-0.2,0-0.4,0.1S282,31.8,282,32c-0.2,0.1-0.4,0.2-0.4,0.2c-0.1,0.1-0.2,0.2-0.4,0.5
			c-0.4,0.6-0.7,1.1-1.1,1.7c-0.4,0.6-0.7,1.3-1.2,2.2c-0.2,0.4-0.4,0.6-0.4,0.7c0,0.1-0.1,0.5-0.1,0.8v2c0,0.1,0,0.4,0.1,0.5
			s0.2,0.2,0.4,0.4c0.1,0,0.2,0.1,0.6,0.1c0.2,0,0.5,0.1,0.6,0.1v0.5h-4.9v-0.5c0.1,0,0.4,0,0.6,0s0.5-0.1,0.6-0.1
			c0.1-0.1,0.4-0.1,0.4-0.4c0.1-0.1,0.1-0.2,0.1-0.5v-2.6c0-0.1,0-0.2-0.1-0.5c-0.1-0.2-0.2-0.5-0.4-0.7c-0.2-0.6-0.6-1.2-1-1.9
			s-0.7-1.2-1-1.7c-0.1-0.2-0.4-0.5-0.5-0.6s-0.2-0.2-0.5-0.4c-0.1-0.1-0.2-0.1-0.5-0.1c-0.2,0-0.4-0.1-0.5-0.1v-0.5h4.6v0.5
			c-0.5,0-0.8,0-1.1,0.1c-0.2,0-0.4,0.1-0.4,0.2V32c0,0.1,0.1,0.1,0.1,0.2c0.1,0.1,0.1,0.2,0.2,0.5c0.1,0.1,0.1,0.4,0.2,0.5
			c0.2,0.5,0.5,0.8,0.7,1.3s0.6,1,1,1.7c0.8-1.2,1.3-2.3,1.8-3s0.6-1.1,0.6-1.3c0-0.1,0-0.2-0.1-0.2c-0.1-0.1-0.2-0.1-0.4-0.1
			c-0.1,0-0.4-0.1-0.5-0.1s-0.4,0-0.5,0V31h3.7L282.7,31.6L282.7,31.6z"/>
	</g>
	<g>
		<path fill="#D99A25" d="M223.6,465.1c0,1.3-0.2,2.4-0.7,3.4s-1.1,1.7-1.9,2.3c-0.8,0.6-1.7,1.1-2.6,1.3c-1,0.2-1.9,0.5-3,0.5h-6.2
			v-0.7c0.2,0,0.5,0,0.8,0s0.6-0.1,0.6-0.1c0.2-0.1,0.4-0.2,0.5-0.4c0.1-0.2,0.1-0.4,0.1-0.6v-10.9c0-0.2,0-0.5-0.1-0.6
			c-0.1-0.2-0.2-0.4-0.5-0.5c-0.2-0.1-0.5-0.2-0.7-0.2s-0.5-0.1-0.7-0.1v-0.7h6.6c1,0,1.8,0.1,2.6,0.5c0.8,0.2,1.7,0.6,2.3,1.1
			c0.8,0.6,1.6,1.4,2,2.5C223.3,462.4,223.6,463.6,223.6,465.1z M221.1,465.1c0-1-0.1-1.9-0.4-2.8c-0.2-0.8-0.7-1.6-1.2-2.2
			s-1.1-1.1-1.8-1.3c-0.7-0.4-1.6-0.5-2.4-0.5c-0.2,0-0.6,0-1,0s-0.6,0-0.8,0V470c0,0.6,0.2,1.1,0.6,1.3s1,0.4,1.7,0.4
			c1,0,1.7-0.1,2.4-0.5s1.2-0.7,1.7-1.3c0.5-0.6,0.7-1.3,1-2C220.9,467,221.1,466,221.1,465.1z"/>
		<path fill="#D99A25" d="M234.1,469.4l-0.2,3.1h-8.8V472c0.1,0,0.4,0,0.6-0.1c0.2,0,0.4-0.1,0.5-0.1c0.1-0.1,0.2-0.1,0.4-0.2
			c0.1-0.1,0.1-0.2,0.1-0.5v-7.6c0-0.1,0-0.4-0.1-0.5c0-0.1-0.1-0.2-0.4-0.4c-0.1-0.1-0.4-0.1-0.6-0.1c-0.2,0-0.4-0.1-0.6-0.1V462
			h8.2v2.5h-0.6c-0.1-0.4-0.4-0.7-0.6-1.2c-0.4-0.5-0.6-0.6-1-0.7c-0.1,0-0.4,0-0.6,0c-0.2,0-0.5,0-0.7,0H228v4.2h1.2
			c0.4,0,0.7,0,0.8-0.1s0.4-0.2,0.5-0.4c0.1-0.1,0.2-0.4,0.2-0.6c0.1-0.2,0.1-0.5,0.1-0.7h0.6v4.2h-0.6c0-0.2-0.1-0.5-0.1-0.7
			c-0.1-0.2-0.1-0.5-0.2-0.6c-0.1-0.2-0.4-0.4-0.5-0.4c-0.2,0-0.5-0.1-0.7-0.1h-1.2v3.1c0,0.4,0,0.6,0.1,0.7c0,0.2,0.1,0.4,0.2,0.4
			c0.1,0.1,0.4,0.1,0.5,0.2s0.6,0,1,0c0.1,0,0.4,0,0.6,0c0.2,0,0.5,0,0.7,0s0.4,0,0.6-0.1c0.2-0.1,0.4-0.1,0.5-0.2
			c0.2-0.2,0.5-0.6,0.7-1.1s0.4-0.8,0.5-1.1h0.6L234.1,469.4L234.1,469.4z"/>
		<path fill="#D99A25" d="M243.6,469.4l-0.2,3.1h-8.3V472c0.1,0,0.2,0,0.5,0c0.2,0,0.4,0,0.5-0.1s0.2-0.1,0.4-0.2
			c0.1-0.1,0.1-0.2,0.1-0.5v-7.6c0-0.1,0-0.4-0.1-0.5c0-0.1-0.1-0.2-0.4-0.4c-0.1,0-0.2-0.1-0.5-0.1c-0.2,0-0.4-0.1-0.5-0.1V462h4.4
			v0.5c-0.1,0-0.4,0-0.6,0.1c-0.2,0.1-0.4,0.1-0.5,0.1s-0.2,0.1-0.4,0.4c-0.1,0.2-0.1,0.2-0.1,0.5v7.1c0,0.4,0,0.6,0,0.7
			s0.1,0.4,0.2,0.5c0.1,0.1,0.2,0.1,0.5,0.1c0.2,0,0.6,0,1,0c0.2,0,0.4,0,0.6,0c0.2,0,0.4,0,0.6,0c0.1,0,0.4-0.1,0.5-0.1
			s0.2-0.1,0.4-0.2c0.2-0.2,0.5-0.6,0.7-1.1s0.5-0.8,0.6-1.1L243.6,469.4L243.6,469.4z"/>
		<path fill="#D99A25" d="M249,472.5h-4.8V472c0.1,0,0.4,0,0.6,0c0.2,0,0.5,0,0.5-0.1c0.1-0.1,0.2-0.1,0.4-0.2
			c0.1-0.1,0.1-0.2,0.1-0.5v-7.7c0-0.1,0-0.4-0.1-0.5c0-0.1-0.2-0.2-0.4-0.2c-0.1,0-0.4-0.1-0.6-0.1c-0.2,0-0.4-0.1-0.6-0.1v-0.5
			h4.8v0.5c-0.1,0-0.4,0-0.6,0c-0.2,0-0.4,0.1-0.6,0.1c-0.2,0-0.4,0.1-0.4,0.2c-0.1,0.1-0.1,0.2-0.1,0.5v7.7c0,0.1,0,0.4,0.1,0.5
			s0.2,0.2,0.4,0.4c0.1,0,0.2,0.1,0.5,0.1c0.2,0,0.5,0.1,0.6,0.1v0.4L249,472.5L249,472.5z"/>
		<path fill="#D99A25" d="M255,472.8c-0.6,0-1.2-0.1-1.8-0.4c-0.6-0.2-1.1-0.6-1.6-1.1s-0.8-1.1-1.1-1.7c-0.2-0.7-0.4-1.4-0.4-2.3
			c0-0.8,0.1-1.6,0.4-2.3c0.2-0.7,0.6-1.3,1.1-1.8s1-0.8,1.6-1.2c0.6-0.2,1.3-0.4,1.9-0.4c0.5,0,1,0.1,1.4,0.2
			c0.5,0.1,0.8,0.4,1.2,0.6l0.4-0.5h0.6l0.1,3.7h-0.6c-0.1-0.4-0.2-0.7-0.4-1.2c-0.1-0.5-0.4-0.8-0.6-1.1c-0.2-0.4-0.5-0.6-0.8-0.8
			c-0.4-0.2-0.7-0.2-1.1-0.2c-0.5,0-1,0.1-1.3,0.4c-0.4,0.2-0.7,0.5-1.1,1c-0.2,0.4-0.5,1-0.7,1.6s-0.2,1.3-0.2,2s0.1,1.3,0.2,1.9
			c0.1,0.6,0.4,1.1,0.7,1.4c0.4,0.5,0.7,0.7,1.1,1c0.4,0.2,1,0.4,1.4,0.4s0.7-0.1,1.1-0.2s0.6-0.2,0.8-0.5c0.2-0.2,0.5-0.5,0.6-0.7
			s0.4-0.6,0.5-1l0.6,0.2c-0.5,1.1-1,1.8-1.7,2.3C256.8,472.5,256,472.8,255,472.8z"/>
		<path fill="#D99A25" d="M270,472.5h-4.4V472c0.4,0,0.7-0.1,1-0.1c0.2-0.1,0.4-0.1,0.4-0.2v-0.1v-0.1l-0.8-2.4h-3.7
			c-0.1,0.4-0.2,0.6-0.4,1c-0.1,0.2-0.1,0.5-0.2,0.7s-0.1,0.4-0.1,0.5s0,0.2,0,0.4c0,0.2,0.1,0.4,0.5,0.5s0.7,0.1,1.1,0.2v0.5h-4
			v-0.5c0.1,0,0.2,0,0.5-0.1c0.2,0,0.4-0.1,0.5-0.2c0.2-0.1,0.4-0.2,0.5-0.5c0.1-0.1,0.2-0.4,0.4-0.6c0.5-1.3,1.1-2.9,1.8-4.4
			c0.6-1.7,1.2-3.1,1.7-4.4h0.6l3.5,9.1c0.1,0.2,0.1,0.4,0.2,0.5s0.2,0.2,0.4,0.4c0.1,0.1,0.2,0.1,0.5,0.1s0.4,0.1,0.5,0.1v0.4H270
			V472.5z M265.8,468.2l-1.6-4.1l-1.6,4.1H265.8z"/>
		<path fill="#D99A25" d="M279,464.8h-0.5c0-0.1-0.1-0.4-0.2-0.6s-0.2-0.5-0.4-0.7c-0.1-0.2-0.4-0.5-0.5-0.6s-0.4-0.2-0.5-0.2
			s-0.4,0-0.6,0s-0.5,0-0.6,0h-0.5v8.5c0,0.1,0,0.4,0.1,0.5s0.2,0.2,0.4,0.4c0.1,0,0.2,0.1,0.6,0.1c0.2,0,0.5,0.1,0.7,0.1v0.5h-5
			v-0.5c0.1,0,0.4,0,0.6,0s0.5-0.1,0.6-0.1c0.1-0.1,0.2-0.1,0.4-0.2c0.1-0.1,0.1-0.2,0.1-0.5V463h-0.5c-0.1,0-0.4,0-0.6,0
			s-0.5,0-0.6,0s-0.4,0.1-0.5,0.2s-0.4,0.4-0.5,0.6s-0.2,0.5-0.4,0.7c-0.1,0.2-0.2,0.5-0.2,0.6H270v-2.9h9.2v2.6L279,464.8
			L279,464.8z"/>
		<path fill="#D99A25" d="M288.7,469.4l-0.2,3.1h-8.8V472c0.1,0,0.4,0,0.6-0.1c0.2,0,0.4-0.1,0.5-0.1c0.1-0.1,0.2-0.1,0.4-0.2
			c0.1-0.1,0.1-0.2,0.1-0.5v-7.6c0-0.1,0-0.4-0.1-0.5c0-0.1-0.1-0.2-0.4-0.4c-0.1-0.1-0.4-0.1-0.6-0.1s-0.4-0.1-0.6-0.1V462h8.2v2.5
			h-0.4c-0.1-0.4-0.4-0.7-0.6-1.2c-0.4-0.5-0.6-0.6-1-0.7c-0.1,0-0.4,0-0.6,0s-0.5,0-0.7,0h-1.7v4.2h1.2c0.4,0,0.7,0,0.8-0.1
			c0.1-0.1,0.4-0.2,0.5-0.4c0.1-0.1,0.2-0.4,0.2-0.6c0.1-0.2,0.1-0.5,0.1-0.7h0.6v4.2h-0.6c0-0.2-0.1-0.5-0.1-0.7
			c-0.1-0.2-0.1-0.5-0.2-0.6c-0.1-0.2-0.4-0.4-0.5-0.4s-0.5-0.1-0.8-0.1h-1.2v3.1c0,0.4,0,0.6,0.1,0.7s0.1,0.4,0.2,0.4
			c0.1,0.1,0.4,0.1,0.5,0.2s0.6,0,1,0c0.1,0,0.4,0,0.6,0s0.5,0,0.7,0s0.4,0,0.6-0.1c0.2,0,0.4-0.1,0.5-0.2c0.2-0.2,0.5-0.6,0.7-1.1
			s0.4-0.8,0.5-1.1h0.5L288.7,469.4L288.7,469.4z"/>
	</g>
	<g>
		<path fill="#D93829" d="M457.9,244v-4.1c1.4-1,2.6-1.7,3.7-2.4s2-1.6,3.2-2.4v-1.6H460c-0.2,0-0.5,0-0.6,0.1
			c-0.2,0.1-0.4,0.2-0.5,0.5c0,0.1-0.1,0.4-0.1,0.7c0,0.4-0.1,0.6-0.1,0.8H458v-6.4h0.7c0,0.1,0,0.4,0.1,0.7c0,0.4,0.1,0.6,0.1,0.7
			c0.1,0.2,0.2,0.4,0.4,0.5c0.1,0.1,0.4,0.1,0.7,0.1h10.9c0.2,0,0.5,0,0.7-0.1s0.4-0.2,0.5-0.5c0.1-0.1,0.1-0.4,0.1-0.7
			c0-0.2,0.1-0.5,0.1-0.7h0.7v7c0,0.6-0.1,1.2-0.2,1.8s-0.4,1.1-0.6,1.6s-0.6,0.8-1.1,1.1c-0.5,0.2-1,0.4-1.7,0.4
			c-0.6,0-1.1-0.1-1.6-0.2s-0.8-0.5-1.2-0.8c-0.4-0.4-0.6-0.7-0.8-1.2c-0.2-0.5-0.4-1-0.6-1.4c-1,0.7-1.8,1.3-2.5,1.8
			s-1.4,1.1-2.5,1.8c-0.5,0.4-0.7,0.6-1,0.8c-0.2,0.2-0.4,0.5-0.5,0.7s-0.1,0.4-0.2,0.7c0,0.2-0.1,0.5-0.1,0.7L457.9,244L457.9,244z
			 M469,238.3c1,0,1.7-0.2,2.2-0.8s0.8-1.3,0.8-2.3v-1.8h-6.5v1.4c0,1,0.4,1.8,1,2.4C467.1,237.8,468.1,238.3,469,238.3z"/>
		<path fill="#D93829" d="M457.9,248.9v-4.8h0.5c0,0.1,0,0.4,0,0.6c0,0.2,0,0.5,0.1,0.5c0.1,0.1,0.1,0.2,0.2,0.4s0.2,0.1,0.5,0.1
			h7.7c0.1,0,0.4,0,0.5-0.1c0.1,0,0.2-0.2,0.2-0.4c0-0.1,0.1-0.4,0.1-0.6c0-0.2,0.1-0.4,0.1-0.6h0.5v4.8h-0.5c0-0.1,0-0.4,0-0.6
			c0-0.2-0.1-0.4-0.1-0.6s-0.1-0.4-0.2-0.4c-0.1-0.1-0.2-0.1-0.5-0.1h-7.7c-0.1,0-0.4,0-0.5,0.1s-0.2,0.2-0.4,0.4
			c0,0.1-0.1,0.2-0.1,0.5c0,0.2-0.1,0.5-0.1,0.6h-0.4L457.9,248.9L457.9,248.9z"/>
		<path fill="#D93829" d="M457.5,254.9c0-0.6,0.1-1.2,0.4-1.8c0.2-0.6,0.6-1.1,1.1-1.6s1.1-0.8,1.7-1.1c0.7-0.2,1.4-0.4,2.3-0.4
			c0.8,0,1.6,0.1,2.3,0.4c0.7,0.2,1.3,0.6,1.8,1.1s0.8,1,1.2,1.6c0.2,0.6,0.4,1.3,0.4,1.9c0,0.5-0.1,1-0.2,1.4
			c-0.1,0.5-0.4,0.8-0.6,1.2l0.5,0.4v0.6l-3.7,0.1v-0.6c0.4-0.1,0.7-0.2,1.2-0.4c0.5-0.1,0.8-0.4,1.1-0.6c0.4-0.2,0.6-0.5,0.8-0.8
			c0.2-0.4,0.2-0.7,0.2-1.1c0-0.5-0.1-1-0.4-1.3c-0.2-0.4-0.5-0.7-1-1.1c-0.4-0.2-1-0.5-1.6-0.7s-1.3-0.2-2-0.2s-1.3,0.1-1.9,0.2
			c-0.6,0.1-1.1,0.4-1.4,0.7c-0.5,0.4-0.7,0.7-1,1.1c-0.2,0.4-0.4,1-0.4,1.4s0.1,0.7,0.2,1.1s0.2,0.6,0.5,0.8s0.5,0.5,0.7,0.6
			c0.2,0.2,0.6,0.4,1,0.5l-0.2,0.6c-1.1-0.5-1.8-1-2.3-1.7C457.7,256.7,457.5,255.8,457.5,254.9z"/>
		<path fill="#D93829" d="M457.9,271v-4.4h0.5c0,0.1,0,0.2,0,0.5c0,0.2,0,0.4,0.1,0.5c0,0.1,0.1,0.2,0.2,0.4
			c0.1,0.1,0.2,0.1,0.5,0.1h3.7V263h-3.7c-0.1,0-0.4,0-0.5,0.1c-0.1,0-0.2,0.1-0.4,0.4c0,0.1-0.1,0.2-0.1,0.5c0,0.2-0.1,0.4-0.1,0.5
			h-0.5V260h0.5c0,0.1,0,0.2,0,0.5c0,0.2,0,0.4,0.1,0.5c0,0.1,0.1,0.2,0.2,0.4c0.1,0.1,0.2,0.1,0.5,0.1h7.9c0.1,0,0.4,0,0.5-0.1
			s0.2-0.1,0.4-0.4c0.1-0.1,0.1-0.2,0.1-0.5c0-0.2,0.1-0.4,0.1-0.5h0.5v4.4h-0.5c0-0.1,0-0.4-0.1-0.5s-0.1-0.4-0.1-0.5
			s-0.1-0.2-0.2-0.4c-0.1,0-0.2-0.1-0.5-0.1h-3.2v4.9h3.1c0.1,0,0.4,0,0.5-0.1s0.2-0.1,0.4-0.4c0.1-0.1,0.1-0.2,0.1-0.5
			c0-0.2,0.1-0.4,0.1-0.5h0.5v4.4H468c0-0.1,0-0.4-0.1-0.5s-0.1-0.4-0.1-0.5s-0.1-0.2-0.2-0.4c-0.1,0-0.2-0.1-0.5-0.1h-7.7
			c-0.1,0-0.4,0-0.5,0.1c-0.1,0-0.2,0.1-0.4,0.4c0,0.1-0.1,0.2-0.1,0.5c0,0.2-0.1,0.4-0.1,0.5h-0.4L457.9,271L457.9,271z"/>
	</g>
	<g>
		<path fill="#D99A25" d="M35.8,260.7l4.4,0.4V273h-0.7c0-0.1,0-0.4-0.1-0.7s-0.1-0.6-0.1-0.7c-0.1-0.2-0.2-0.4-0.4-0.5
			c-0.1-0.1-0.4-0.1-0.7-0.1H27.4c-0.2,0-0.5,0-0.6,0.1c-0.2,0.1-0.4,0.2-0.5,0.5c-0.1,0.1-0.1,0.4-0.2,0.7
			c-0.1,0.2-0.1,0.5-0.1,0.7h-0.7v-6.4H26c0,0.2,0,0.5,0.1,0.7c0.1,0.4,0.1,0.6,0.1,0.7c0.1,0.2,0.2,0.4,0.5,0.5
			c0.2,0.1,0.5,0.1,0.7,0.1h10.2c0.5,0,0.8,0,1.1-0.1s0.5-0.1,0.6-0.4c0.1-0.1,0.2-0.4,0.2-0.7s0-0.7,0-1.3c0-0.2,0-0.5,0-0.8
			c0-0.2,0-0.6-0.1-0.8c0-0.2-0.1-0.5-0.1-0.7c-0.1-0.2-0.1-0.4-0.2-0.5c-0.4-0.2-0.8-0.6-1.4-1c-0.7-0.4-1.2-0.6-1.6-0.8v-0.7h-0.3
			C35.8,260.8,35.8,260.7,35.8,260.7z"/>
		<path fill="#D99A25" d="M40.3,255.3v4.8h-0.5c0-0.1,0-0.4,0-0.6s0-0.5-0.1-0.5c-0.1-0.1-0.1-0.2-0.2-0.4c-0.1-0.1-0.2-0.1-0.5-0.1
			h-7.7c-0.1,0-0.4,0-0.5,0.1c-0.1,0-0.2,0.2-0.2,0.4s-0.1,0.4-0.1,0.6s-0.1,0.4-0.1,0.6h-0.5v-4.8h0.5c0,0.1,0,0.4,0,0.6
			c0,0.2,0.1,0.4,0.1,0.6s0.1,0.4,0.2,0.4c0.1,0.1,0.2,0.1,0.5,0.1h7.7c0.1,0,0.4,0,0.5-0.1s0.2-0.2,0.4-0.4c0-0.1,0.1-0.2,0.1-0.5
			s0.1-0.5,0.1-0.6h0.4L40.3,255.3L40.3,255.3z"/>
		<path fill="#D99A25" d="M36.1,243.8c0,0.1,0,0.2,0.1,0.5c0.1,0.2,0.1,0.4,0.1,0.5c0.1,0.1,0.2,0.2,0.4,0.4
			c0.1,0.1,0.2,0.1,0.5,0.1H38c0.6,0,1,0,1.2,0s0.4,0,0.5,0c0.2,0.7,0.5,1.3,0.7,1.9c0.1,0.6,0.2,1.3,0.2,1.9c0,0.7-0.1,1.3-0.4,1.9
			s-0.6,1.2-1.1,1.7s-1.1,0.8-1.7,1.1c-0.7,0.2-1.4,0.4-2.3,0.4s-1.6-0.1-2.3-0.4c-0.7-0.2-1.3-0.6-1.8-1.1s-0.8-1.1-1.2-1.7
			c-0.2-0.6-0.4-1.3-0.4-2.2c0-0.6,0.1-1.1,0.2-1.6s0.4-0.8,0.5-1.2l-0.5-0.4V245l3.7-0.1v0.6c-0.4,0.1-0.8,0.2-1.2,0.4
			c-0.4,0.1-0.7,0.4-1.1,0.6c-0.4,0.2-0.6,0.6-0.7,0.8c-0.2,0.4-0.2,0.7-0.2,1.2s0.1,1,0.4,1.4c0.2,0.5,0.5,0.8,1,1.1
			c0.4,0.4,1,0.5,1.6,0.7c0.6,0.1,1.3,0.2,2,0.2s1.3-0.1,1.9-0.2c0.6-0.1,1.1-0.4,1.6-0.7c0.5-0.4,0.8-0.7,1.1-1.2s0.4-1,0.4-1.6
			c0-0.5-0.1-0.8-0.2-1.2c-0.1-0.4-0.2-0.6-0.5-0.7c-0.2,0-0.5-0.1-0.8-0.1c-0.2,0-0.5,0-0.7,0h-0.6c-0.2,0-0.4,0-0.6,0.1
			c-0.1,0-0.2,0.1-0.4,0.4c-0.1,0.1-0.1,0.4-0.1,0.7c0,0.2-0.1,0.5-0.1,0.7h-0.6v-4.7h0.6C36.1,243.4,36.1,243.8,36.1,243.8z"/>
		<path fill="#D99A25" d="M40.3,231.9v4.4h-0.5c0-0.1,0-0.2,0-0.5c0-0.2,0-0.4-0.1-0.5c0-0.1-0.1-0.2-0.2-0.4s-0.2-0.1-0.5-0.1h-3.7
			v4.9H39c0.1,0,0.4,0,0.5-0.1c0.1,0,0.2-0.1,0.4-0.4c0-0.1,0.1-0.2,0.1-0.5c0-0.2,0.1-0.4,0.1-0.5h0.5v4.4h-0.5c0-0.1,0-0.2,0-0.5
			c0-0.2,0-0.4-0.1-0.5c0-0.1-0.1-0.2-0.2-0.4s-0.2-0.1-0.5-0.1h-7.7c-0.1,0-0.4,0-0.5,0.1s-0.2,0.1-0.4,0.4
			c-0.1,0.1-0.1,0.2-0.1,0.5c0,0.2-0.1,0.4-0.1,0.5H30v-4.3h0.5c0,0.1,0,0.4,0.1,0.5s0.1,0.4,0.1,0.5s0.1,0.2,0.2,0.4
			c0.1,0,0.2,0.1,0.5,0.1h3.2v-5h-3.2c-0.1,0-0.4,0-0.5,0.1s-0.2,0.1-0.4,0.4c-0.1,0.1-0.1,0.2-0.1,0.5c0,0.2-0.1,0.4-0.1,0.5h-0.5
			v-4.4h0.5c0,0.1,0,0.4,0.1,0.5s0.1,0.4,0.1,0.5s0.1,0.2,0.2,0.4c0.1,0,0.2,0.1,0.5,0.1H39c0.1,0,0.4,0,0.5-0.1
			c0.1,0,0.2-0.1,0.4-0.4c0-0.1,0.1-0.2,0.1-0.5c0-0.2,0.1-0.4,0.1-0.5L40.3,231.9L40.3,231.9z"/>
		<path fill="#D99A25" d="M32.7,221.9v0.5c-0.1,0-0.4,0.1-0.6,0.2c-0.2,0.1-0.5,0.2-0.7,0.4c-0.2,0.1-0.5,0.4-0.6,0.5
			s-0.2,0.4-0.2,0.5s0,0.4,0,0.6c0,0.2,0,0.5,0,0.6v0.5H39c0.1,0,0.4,0,0.5-0.1s0.2-0.2,0.4-0.4c0-0.1,0.1-0.2,0.1-0.6
			c0-0.4,0.1-0.5,0.1-0.7h0.5v5h-0.5c0-0.1,0-0.4,0-0.6c0-0.2-0.1-0.5-0.1-0.6c-0.1-0.1-0.1-0.2-0.2-0.4c-0.1-0.1-0.2-0.1-0.5-0.1
			h-8.5v0.5c0,0.1,0,0.4,0,0.6c0,0.2,0,0.5,0,0.6s0.1,0.4,0.2,0.5s0.4,0.4,0.6,0.5s0.5,0.2,0.7,0.4s0.5,0.2,0.6,0.2v0.5H30v-9.2h2.6
			v0.1H32.7z"/>
	</g>
</g>
</svg>
